<svg width="24" height="25" viewBox="0 0 24 25" fill="none" xmlns="http://www.w3.org/2000/svg">
<path d="M9.56994 19.6719C9.37994 19.6719 9.18994 19.6019 9.03994 19.4519L2.96994 13.3819C2.67994 13.0919 2.67994 12.6119 2.96994 12.3219L9.03994 6.25192C9.32994 5.96192 9.80994 5.96192 10.0999 6.25192C10.3899 6.54192 10.3899 7.02192 10.0999 7.31192L4.55994 12.8519L10.0999 18.3919C10.3899 18.6819 10.3899 19.1619 10.0999 19.4519C9.95994 19.6019 9.75994 19.6719 9.56994 19.6719Z" fill="white"/>
<path d="M20.5 13.6019H3.67004C3.26004 13.6019 2.92004 13.2619 2.92004 12.8519C2.92004 12.4419 3.26004 12.1019 3.67004 12.1019H20.5C20.91 12.1019 21.25 12.4419 21.25 12.8519C21.25 13.2619 20.91 13.6019 20.5 13.6019Z" fill="white"/>
</svg>
